<svg xmlns="http://www.w3.org/2000/svg" viewBox="0 0 64 64"><defs><style>.cls-1{fill:#50d9d7;}.cls-2{fill:#fff;}.cls-3{fill:#93e6e5;}.cls-4{fill:#ffac00;}.cls-5{fill:#f3f3f3;}.cls-6{fill:#00bebd;}.cls-7{fill:#d9d9d9;}.cls-8{fill:#ea9807;}</style></defs><title>Apps</title><g id="Apps"><path class="cls-1" d="M49,10V54a6,6,0,0,1-6,6H21a6,6,0,0,1-6-6V10a6,6,0,0,1,5.67-6c.12,0-1,0,22.33,0A6,6,0,0,1,49,10Z"/><path class="cls-2" d="M47,10V52a4,4,0,0,1-4,4H21a4,4,0,0,1-4-4V11a5,5,0,0,1,4.58-5c.35,0,0,0,2.7,0,.84,0,1,.74,1.26,1.63A2,2,0,0,0,27.44,9h9.12a2,2,0,0,0,1.9-1.37l.31-.94A1,1,0,0,1,39.72,6H43A4,4,0,0,1,47,10Z"/><rect class="cls-3" x="20" y="16" width="10" height="16"/><rect class="cls-3" x="34" y="32" width="10" height="16"/><rect class="cls-4" x="34" y="12" width="10" height="10"/><rect class="cls-4" x="20" y="35" width="10" height="10"/><rect class="cls-5" x="20" y="12" width="9" height="2"/><rect class="cls-5" x="34" y="24" width="9" height="2"/><rect class="cls-5" x="34" y="28" width="9" height="2"/><rect class="cls-5" x="20" y="47" width="9" height="2"/><rect class="cls-5" x="34" y="50" width="9" height="2"/><path class="cls-6" d="M21.58,6A5,5,0,0,0,17,11v8.4a11.15,11.15,0,0,0-1,2.8A5.49,5.49,0,0,1,15,26V10a6,6,0,0,1,5.78-6A10.94,10.94,0,0,1,21.58,6Z"/><path class="cls-5" d="M20,12v2h.79c-1.22,2.42-2.45,2.78-3.79,5.4V11a5,5,0,0,1,4.58-5,10.85,10.85,0,0,1,0,6Z"/><path class="cls-7" d="M21.58,12a10.4,10.4,0,0,1-.79,2H20V12Z"/><path class="cls-4" d="M20,9c0,5.9-4.67,6.43-5.95,12.77C14,22.09,14.9,22,8,22a12.78,12.78,0,0,0-3.4-6.68A9,9,0,0,1,11.25,0,9.1,9.1,0,0,1,20,9Z"/><path class="cls-2" d="M10.07,22.37l-4-10A1,1,0,0,1,7,11c8.82,0,8.43-.16,8.83.44s.36.27-3.9,10.93A1,1,0,0,1,10.07,22.37ZM8.48,13,11,19.31,13.52,13Z"/><path class="cls-5" d="M11,26a3,3,0,0,1-3-3V22h6v1A3,3,0,0,1,11,26Z"/><path class="cls-6" d="M49,46v8a6,6,0,0,1-6,6H38V56h5a4,4,0,0,0,4-4V46Z"/><path class="cls-5" d="M47,46v6a4,4,0,0,1-4,4H38V52h5V50H38a4,4,0,0,1,.54-2H44V46Z"/><rect class="cls-7" x="38" y="50" width="5" height="2"/><path class="cls-1" d="M44,46v2H38.54C39.88,45.67,42.15,46,44,46Z"/><path class="cls-4" d="M62,50V62a2,2,0,0,1-2,2c-19.36,0-18.61.24-19.41-.59S40,62.91,40,50a2,2,0,0,1,2-2H60A2,2,0,0,1,62,50Z"/><path class="cls-8" d="M62,58v4a2,2,0,0,1-2,2c-19.36,0-18.61.24-19.41-.59l6-6a2,2,0,0,1,2.82,0l.18.18a2,2,0,0,0,2.82,0l3.18-3.18a2,2,0,0,1,2.82,0Z"/><circle class="cls-5" cx="45" cy="52" r="2"/></g></svg>